<?xml version="1.0" encoding="UTF-8"?>
<svg id="Layer_1" data-name="Layer 1" xmlns="http://www.w3.org/2000/svg"
    viewBox="0.04248046875 -0.050018310546875 425.1589660644531 327.1400146484375">
    <path fill="#fff"
        d="M708.9,470.56a13.73,13.73,0,0,0-.91-1.25l-.14-.16-.18-.21L698,457.29l0,0c-.14-.18-.3-.35-.45-.53l-.39-.4a21.48,21.48,0,0,0-4.92-3.76l-.12-.07a23,23,0,0,0-7-2.47l-7.87-9.46c-.16-.19-.31-.36-.48-.54a24.49,24.49,0,0,0-20.78-8,26.64,26.64,0,0,0-3.66.62c-.22-.31-.46-.62-.7-.93s-.36-.49-.56-.73l-9.27-11.12-.45-.51a25.73,25.73,0,0,0-6.66-5.45A30.78,30.78,0,0,0,619,409.8l-1.23,0a52.87,52.87,0,0,0,1.91-5c2.89-8.89,2.17-16.52-2.15-22.67.18-.89.32-1.75.44-2.58a26.41,26.41,0,0,0-4.28-19.25,11.14,11.14,0,0,0-.94-1.31L603,347.24c-.22-.26-.44-.5-.67-.74a25.11,25.11,0,0,0-7-5.35,32.68,32.68,0,0,0-15.23-3.63,37.48,37.48,0,0,0-3.8.19,41.61,41.61,0,0,0-11,2.71c-4.42,1.73-9.95,4.52-13.42,10.68l-.18.32a19.12,19.12,0,0,0-2.39,8.94v.24a50.89,50.89,0,0,1-.72,7.1,37,37,0,0,0-5-.34,38.92,38.92,0,0,0-4.13.22c-9.32.93-18.79,5.06-28.25,12.29A31.93,31.93,0,0,0,493,374.58H492a44.86,44.86,0,0,0-5.28-8l-.33-.41-9.69-11.62c-.17-.2-.34-.4-.52-.59l-.61-.69c-10.09-10.91-25.78-16.9-44.21-16.9-26.5,0-54.45,11.68-71.21,29.75-11.88,12.82-17.52,28-16.31,43.85a42.9,42.9,0,0,0,9.27,23.86c.19.27.39.53.6.79l1.16,1.39-1.25.22c-10.66,2-21.14,8.31-31.17,18.73-8.68,9-16.34,20.75-22.78,34.86-8.49,18.62-15.7,46.42-10.44,68.58A48.73,48.73,0,0,0,298.72,578c.16.22.33.44.51.65l6.48,7.76a55.93,55.93,0,0,0-10.65,27.91c-.91,10.05,1.84,19.06,8,26.12.09.12.18.24.28.35l8.94,10.76.27.31,0,0a9.47,9.47,0,0,0,.74.81c.69.75,1.36,1.43,2,2a32.52,32.52,0,0,0,22.18,8.84,33.53,33.53,0,0,0,6.23-.59c14.48-2.71,23.24-15.4,28.57-24.7,4.6-8,8.8-18.46,12.79-31.72,42.38-13.32,125.42-30.67,191.38-30.67,26,0,46.93,2.89,60.17,8.22a20.63,20.63,0,0,0,4.11,8.83l.15.17,9.3,11.15c.14.18.28.35.43.52l0,0a10,10,0,0,0,.88.95,20.72,20.72,0,0,0,14.86,6.28c10.31,0,19.69-7.28,25.08-19.48,8.36-18.93,4.48-33.34-.25-42.1a42.67,42.67,0,0,0-3.74-5.69,12,12,0,0,0-.75-1l-.68-.82,0,0,0,0-8.9-10.7A75.69,75.69,0,0,0,687,516.25a44.38,44.38,0,0,0,9.87-6.9,67.19,67.19,0,0,0,13-16.66c.17-.3.34-.6.49-.91A20.77,20.77,0,0,0,708.9,470.56Zm-13.64,7.08c-.09.19-.19.37-.29.55a61.16,61.16,0,0,1-11.84,15.16,37.19,37.19,0,0,1-10.42,6.84,68.4,68.4,0,0,1-14,21.19q-1.12,1.14-2.25,2.19c9,4.72,15.79,11.06,19.77,18.44,4.07,7.54,7.39,20,0,36.64-4.3,9.74-11.73,15.79-19.41,15.79a14.41,14.41,0,0,1-11.25-5.33l-.07-.09a14.64,14.64,0,0,1-2.75-12.35c.22-.95-.85-2.5-2.72-3.93-8.62-6.6-28.29-14.47-73.13-14.47-71.62,0-158.08,19.52-196.41,32-4.13,14.32-8.44,25.3-13.15,33.54s-12.37,19.44-24.36,21.69A26.93,26.93,0,0,1,328,646a26.4,26.4,0,0,1-18-7.23c-4.6-4.18-9.86-11.72-8.76-23.87,1.05-11.42,6-21.9,14.75-31.2-11.79-4.94-18.43-16.81-20.76-26.64-4.9-20.66,2.35-47.7,10-64.58,6.15-13.47,13.42-24.62,21.6-33.12,9.12-9.47,18.49-15.17,27.84-16.94a31.58,31.58,0,0,1,5.79-.59h.31a53.26,53.26,0,0,1,10.06.95,62.84,62.84,0,0,1-9.71-8.62c-6.76-7.54-10.52-15.81-11.19-24.57-1.07-14.1,4-27.64,14.68-39.16,15.64-16.87,41.81-27.77,66.66-27.77,16.68,0,30.75,5.29,39.63,14.89A36.92,36.92,0,0,1,481,382.83a38.84,38.84,0,0,1,8.48-1.87c1.19-.12,2.38-.18,3.52-.18,8.46,0,13.95,3.32,17.07,6.11.35.32.7.65,1,1,9.82-8.44,19.54-13.19,28.89-14.13,1.2-.12,2.38-.18,3.52-.18a27.74,27.74,0,0,1,8.86,1.38c.4-.2.81-.37,1.22-.53.23-1.1.43-2.09.6-3a67.25,67.25,0,0,0,1.24-10.71v-.24a12.79,12.79,0,0,1,1.57-5.95l.12-.23.09-.16c2.5-4.4,6.6-6.47,10.27-7.92a35,35,0,0,1,9.33-2.3,31.25,31.25,0,0,1,3.18-.17,26.64,26.64,0,0,1,12.37,2.93c7.5,3.9,11.2,11.62,9.89,20.62a44.74,44.74,0,0,1-1,5.05,15,15,0,0,1,1.51,1.78c4.91,6.76,2.4,14.48,1.46,17.39C601.81,399.07,598,404.64,593,408a18.05,18.05,0,0,1-6,2.69l-.29.84-.56,1.66A17.13,17.13,0,0,1,589,413a18.07,18.07,0,0,1,5.51.87l.34.12a15.62,15.62,0,0,1,8.18,6.3,34.49,34.49,0,0,1,13.14-4.13c1-.09,1.91-.14,2.83-.14a24.72,24.72,0,0,1,12.49,3.24,18.12,18.12,0,0,1,9.18,19.31,19.73,19.73,0,0,1-1.36,4.57,19.4,19.4,0,0,1-.85,1.79,32.75,32.75,0,0,1,5.82-1.29l.66-.53a21.27,21.27,0,0,1,11.57-4.93,17.62,17.62,0,0,1,1.94-.1c4.56,0,15.54,1.76,19.55,18h.08a19.48,19.48,0,0,1,2.72-.2,17,17,0,0,1,8.23,2.07l.11.06A14.66,14.66,0,0,1,695.26,477.64Z"
        transform="translate(-287.4 -336.42)"></path>
    <path fill="#fff"
        d="M451.09,434.18c-1.7,9.51-.41,16.76,3.84,21.53A18.45,18.45,0,0,0,469.26,462a25.58,25.58,0,0,0,2.59-.14c6.81-.68,13.81-3.65,20.81-8.82a63.45,63.45,0,0,0,10-9.06,16.4,16.4,0,0,0,2.82,4.52,18.41,18.41,0,0,0,14.32,6.28,25.52,25.52,0,0,0,2.59-.13c6.81-.68,13.81-3.65,20.81-8.83a65.19,65.19,0,0,0,9-8,21.23,21.23,0,0,0,1.76,8.35c1.94,4.11,4.82,6.2,8.58,6.2a10.37,10.37,0,0,0,1.62-.13c5.05-.89,10.17-3.49,15.25-7.72a58.24,58.24,0,0,0,12.76-15.06,2.16,2.16,0,0,0,.27-1.88,2.78,2.78,0,0,0-1.86-1.53c-2.21-.7-4.09,0-5.56,2.19a30.4,30.4,0,0,1-7.18,9.2,26.38,26.38,0,0,1-8.21,5.13,3.42,3.42,0,0,1-.62.06c-.41,0-1.27,0-1.57-1.87s0-5.56.89-10.64a153.59,153.59,0,0,1,5-19.11q2.52-7.41,4.21-12.26a25.89,25.89,0,0,0,5.92-.42,5,5,0,0,0,2.28-.91c2.65-1.78,4.78-5.11,6.33-9.9,1-3.06,1.1-4.89.36-5.92a2.11,2.11,0,0,0-2.13-.76L590,381a45.83,45.83,0,0,1-6.34,2.72c3.48-8.29,5.42-14.25,6-18.19.54-3.59-.51-6.1-3.11-7.45a14.58,14.58,0,0,0-8.35-1.38,22,22,0,0,0-5.91,1.48c-2.84,1.11-3.52,1.79-3.81,2.31l-.12.21v.24a81.53,81.53,0,0,1-1.45,12.77c-.63,3.54-1.61,7.78-2.91,12.62-2.24.06-3.84.05-4.73,0H559a2.87,2.87,0,0,0-2,1,3.87,3.87,0,0,0-1.13,2.61,3.57,3.57,0,0,0,1.56,3.05,36.64,36.64,0,0,0,4,2.14c-.11.38-.28.93-.54,1.7-3.08,10.67-4.74,16.57-5.09,18-1.38,5.54-2.22,9.17-2.56,11.11,0,.19-.06.36-.09.54a2.63,2.63,0,0,0-1.44,1c-1.88,3.9-5.26,7.5-10.06,10.68s-9.21,5-13.1,5.39a6.31,6.31,0,0,1-6.26-3.06c-1.56-2.33-2.19-6.06-1.87-11.1,7.14-1.87,14.38-5.81,21.53-11.72,7.44-6.15,11.82-12.65,13-19.31a9.25,9.25,0,0,0-2.89-9.06c-2.53-2.26-6.13-3.17-10.75-2.71-7.33.73-15.4,5.12-24,13S503.45,416.69,501.62,427a41.88,41.88,0,0,0-.7,8.13c-1.92,3.71-5.2,7.15-9.8,10.19-4.81,3.19-9.21,5-13.09,5.39a6.29,6.29,0,0,1-6.27-3.06c-1.56-2.32-2.19-6.06-1.87-11.1,7.14-1.87,14.38-5.81,21.53-11.72,7.44-6.15,11.82-12.64,13-19.3a9.22,9.22,0,0,0-2.88-9.06c-2.53-2.26-6.12-3.18-10.75-2.72-7.33.74-15.4,5.12-24,13S452.93,423.9,451.09,434.18ZM521.37,422a64.47,64.47,0,0,1,6.52-19.2c3.45-6.17,5.88-7.64,7.31-7.78h.12a.6.6,0,0,1,.5.23c.38.45,1.14,2.25-.08,9A26.43,26.43,0,0,1,530,416.61a18.1,18.1,0,0,1-8.77,6.1Zm-50.52,7.21a64.75,64.75,0,0,1,6.52-19.2c3.44-6.17,5.88-7.64,7.31-7.78h.11a.59.59,0,0,1,.5.23c.39.46,1.15,2.25-.07,9a26.35,26.35,0,0,1-5.73,12.37,18,18,0,0,1-8.77,6.1Zm-87.84.66h0a15.35,15.35,0,0,0,13.27-7.51c2.62-4.14,2.45-10.14,1.18-12.45a2.11,2.11,0,0,0-1.85-1.31,1.89,1.89,0,0,0-1.18.43,8.76,8.76,0,0,1-5.23,1.91c-3.79,0-6.95-3-8.06-7.61A24.56,24.56,0,0,1,386,381.74c7.35-9.31,21.48-15.57,35.17-15.57,12.86,0,22.29,5.38,25.88,14.76,2.68,7,2.1,15.09-1.68,23.3-5.68,12.35-18.34,24.22-31.19,29.37,1.28-7.08,3.18-16.9,5.91-30.64L422.46,391c1.69-8.44,3-15.11,3.59-18.38a3.61,3.61,0,0,0-1-2.83c-1.71-1.87-5.18-2.72-7.68-2.72-2.28,0-3.67.67-3.94,1.86l-.08.32c-3.22,13-6.19,25.25-8.37,34.63-3.46,15-6.24,26.28-8.24,33.68-1.43,5.31-2.88,10.14-4.15,14.4-1.05,3.53-2.05,6.87-2.9,10-.33,1.21-.69,2.4-1,3.56-1.5,5-2.79,9.28-.92,11.8,1,1.29,2.56,1.91,4.92,1.91a20.91,20.91,0,0,0,3.85-.42c.1,0,10.69-2.43,10.93-5.06.84-9.11,2.67-18.65,4.45-27.88.33-1.73.67-3.47,1-5.2,19.07-4.52,47.07-26.82,53.83-48.32,3.16-10.05,1.37-19.09-5.16-26.16s-17.15-10.76-30.21-10.76c-21.13,0-44.13,9.5-57.25,23.66-8.19,8.83-12.09,19-11.3,29.46C363.78,421.88,373.86,429.84,383,429.84Zm299.88,39.35a4.66,4.66,0,0,0-3-.44,4.16,4.16,0,0,0-2.8,1.61,31.54,31.54,0,0,1-5.83,7.72c-2,1.86-3.91,2.88-5.63,3.05l-.5,0,.35-1.93c1.39-7.68,1.41-14.38.08-19.92-1.42-5.91-4.05-8.78-7.78-8.4a8.58,8.58,0,0,0-4.82,2.17,14.3,14.3,0,0,0-3.45,3.94,4.61,4.61,0,0,0-3.28-.72c-5.92.59-12.73,4.59-20.25,11.9a51.59,51.59,0,0,0-14.67,24.9,46,46,0,0,0-.86,5.1A47.93,47.93,0,0,1,604.9,507c-2.64,3.16-4.07,3.74-4.87,3.8-.59-.05-.62-1.4-.61-2a79,79,0,0,1,1.39-10.47,154,154,0,0,1,5.94-22.24c2.7-7.93,4.69-13.08,5.93-15.3l.1-.29c.13-.68-.34-1.24-1.06-1.87a8,8,0,0,0-2.91-1.43,10.66,10.66,0,0,0-4-.38c-4.75.47-9.25,4.24-13.37,11.2-4,6.78-7,15.26-8.75,25.22-.28,1.57-.48,3.08-.63,4.54a26.81,26.81,0,0,1-6.45,7.11,30.7,30.7,0,0,1-13.29,6c-2.91.55-5.1,0-6.65-1.71-2.59-2.82-3.48-8.82-2.66-17.8,1-8.43,2.77-15.27,5.39-20.34,2.53-4.88,5.07-7.6,7.54-8.06a.59.59,0,0,1,.58.13c.24.26.77,1.26.45,4.75a27.26,27.26,0,0,1-2.19,8.24c-1.53,3.59-2.65,4.16-3.21,4.26a2.6,2.6,0,0,0-2.32,2.43c-.08.82.27,1.92,2.37,2.53a11.89,11.89,0,0,0,5.39-.05,24.62,24.62,0,0,0,10.13-4.73c3.37-2.53,5.61-5.24,6.68-8.11a26.67,26.67,0,0,0,1.12-5.85c.39-4.17-.74-7.52-3.34-9.94s-6.3-3.23-11-2.34c-7.64,1.44-15.52,6.51-23.42,15.06s-12.38,18.2-13.33,28.67a42.6,42.6,0,0,0-.16,4.85,4.88,4.88,0,0,0-1.88,1.57c-5.44,10.59-8.68,13-10.63,13.2a.53.53,0,0,1-.4-.23c-.44-.57-1-2.46.13-8.7.93-5.2,3.71-13.7,8.24-25.26,2.95-7.21,4.6-11.88,5-14.27a8.36,8.36,0,0,0-.32-5l-1-1.49c-2-1.76-6.07-.9-12.7,2.72-.76.37-1.88,1-3.32,1.84s-2.57,1.49-3.41,2a23.91,23.91,0,0,1-3.27,1.42,24.28,24.28,0,0,1-2.73.8l2.25-8.44a3.5,3.5,0,0,0-1.84-4.33,8.93,8.93,0,0,0-4.89-.8c-1.93.2-4.18,1.25-6.87,3.22a26.49,26.49,0,0,0-6.36,6.52,14.3,14.3,0,0,0-2.28,5.09,5.65,5.65,0,0,0,.78,4.39,7.25,7.25,0,0,0,4.49,2.62,136.52,136.52,0,0,1-9.94,29.33,5.06,5.06,0,0,0-.4,1.48,30,30,0,0,1-7.95,9c-4.52,3.59-8.77,5.77-12.63,6.5a6.32,6.32,0,0,1-6.53-2.5c-1.77-2.16-2.72-5.81-2.84-10.84,7-2.47,13.87-7,20.51-13.51,6.9-6.75,10.71-13.58,11.33-20.29a9.19,9.19,0,0,0-3.69-8.75c-2.71-2-6.41-2.61-11-1.75-7.26,1.36-14.95,6.42-22.85,15S434.34,501.67,433.39,512c-.52,5.73,0,10.54,1.44,14.43-3.47,7.31-6.28,9.39-8.13,9.75a2.94,2.94,0,0,1-.51,0,1.66,1.66,0,0,1-1.29-.58c-1-1-1.94-4-1.2-12.16a72.46,72.46,0,0,1,1.49-8.75l1.66-7.34c2.36-10.21,3.6-16.11,3.77-18,.32-3.42-.69-5.74-3-6.91a11.19,11.19,0,0,0-7.24-.83,14.35,14.35,0,0,0-4.93,1.92c-1.79,1.1-2.62,2-2.7,3.1a37.37,37.37,0,0,1,0,6.43A103,103,0,0,1,410.9,504c-4.35,11.9-8,20.95-10.83,26.9-3.54,7.42-5.76,8.86-6.89,9.06a.34.34,0,0,1-.29-.15c-.41-.44-1.27-2.28-.59-9.78a72,72,0,0,1,2-11.43,182.45,182.45,0,0,0,4.18-24c.33-3.68-1.44-5.3-3-6a11.07,11.07,0,0,0-6.8-.69,17.69,17.69,0,0,0-4.78,1.73,25.38,25.38,0,0,0-4.06,2.55c-1.39,1.12-1.9,1.89-1.78,2.56a111.15,111.15,0,0,1-.26,15.11c-.23,2.51-.92,7-2.06,13.28s-1.84,10.88-2.07,13.43c-.56,6.12.13,10.51,2.09,13.43a7.87,7.87,0,0,0,6.89,3.67,12,12,0,0,0,2.26-.22c7.41-1.4,14.52-8.58,21.67-21.92a19.85,19.85,0,0,0,4.48,10.13c3.27,3.92,7.41,5.48,12.24,4.56,3.76-.71,7.48-3.31,11.06-7.75a62.65,62.65,0,0,0,4.18-6c.18.19.34.4.54.58A18.29,18.29,0,0,0,452,538.15a25.28,25.28,0,0,0,4.56-.44c6.75-1.27,13.49-4.83,20-10.57s11.28-11.84,14.16-18.2l0-.28a182.67,182.67,0,0,0,12.91-29,52.79,52.79,0,0,0,8.22-1.89,116.12,116.12,0,0,0-9.34,28.13c-1.16,6.45-.53,11.77,1.89,15.83a10.63,10.63,0,0,0,8.46,5.64,11.84,11.84,0,0,0,2.45,0c4.08-.4,8.22-2.64,12.3-6.66a60.46,60.46,0,0,0,7.4-9.07,15.76,15.76,0,0,0,4.53,6.82A19,19,0,0,0,552.27,523a27.07,27.07,0,0,0,5-.48c6.75-1.27,13.4-4.64,19.77-10a65.22,65.22,0,0,0,5.09-4.8,24.57,24.57,0,0,0,1.37,5.39c1.75,4.47,4.67,6.92,8.67,7.27a12.91,12.91,0,0,0,2.32,0l.78-.07c4-.6,8.08-3,12.11-7a56.55,56.55,0,0,0,3.76-4.25,19,19,0,0,0,16.27,13.8,21.57,21.57,0,0,0,4,0c5.93-.58,12-4.07,18.2-10.37A57.56,57.56,0,0,0,663,489.66l.45,0a21.43,21.43,0,0,0,11.07-5.74,48.61,48.61,0,0,0,9.32-12A1.91,1.91,0,0,0,682.89,469.19ZM452.71,505.36a63.91,63.91,0,0,1,4.84-19.62c2.91-6.43,5.21-8.09,6.63-8.36a.71.71,0,0,1,.2,0,.59.59,0,0,1,.48.22c.5.56,1.27,2.45.68,8.92a26.17,26.17,0,0,1-4.65,12.78,18.12,18.12,0,0,1-8.25,6.82Zm193-.15c-3,4-6.15,6.25-9.44,6.57a5.62,5.62,0,0,1-1.08,0c-2.36-.21-3.91-2.09-4.76-5.75-1-4.51-.79-10.48.69-17.68a57,57,0,0,1,7.76-17.68c2.77-4.17,5.52-7,8.18-8.34a18.37,18.37,0,0,0-.56,2.27,31.65,31.65,0,0,0-.15,10.37h-.07l.08.92a18,18,0,0,0,2.33,7.52,17.35,17.35,0,0,0,4.08,5C651.13,495.46,648.75,501.1,645.71,505.21Zm-37.33-54.59a12.88,12.88,0,0,0,2.23,0c2.41-.24,5.5-1.68,9.43-4.38s6.44-5.48,7.51-8.21a6.25,6.25,0,0,0,.49-1.72,5.31,5.31,0,0,0-2.93-5.9,12.6,12.6,0,0,0-7.68-1.47,22.4,22.4,0,0,0-9.82,3.55c-3.28,2.1-5.2,4.56-5.7,7.31-.6,3.33-.15,6.05,1.33,8.1A6.74,6.74,0,0,0,608.38,450.62Zm22.17,77.88a268.58,268.58,0,0,0-43.38-3.17c-76.21,0-169.35,23.06-224.58,44.75,2.29-9.58,4.26-19.05,5.86-26.76l.77-3.74c.14-.66.31-1.41.5-2.2a44.47,44.47,0,0,0,1-5.5,1.88,1.88,0,0,0-.53-1.48c-2.06-2.25-10.84-2.76-13.75-2.76a16.69,16.69,0,0,0-2.51.15c-1.19.23-2.38,1.47-3,8.89-2,9-7.71,24.52-16.12,26.11-3.56.67-6.09-1.36-7.85-6.25-5.06-14.09.8-42.38,5.68-56.91,3.64-10.83,7.57-19.58,11.68-26,4-6.26,7.46-9.7,10.25-10.22a2.43,2.43,0,0,1,2.45.72c1.21,1.32,2.46,5,1.54,15.07a35.49,35.49,0,0,1-4.05,14.31c-2.09,3.68-4.07,5.72-5.88,6.07l-.29.05a1.18,1.18,0,0,0-.93,1.16c-.12,1.24.75,2.53,2.63,3.93a8.08,8.08,0,0,0,6.57,1.29c4.53-.86,8.73-3.75,12.49-8.61s5.95-11,6.62-18.32c.7-7.68-.58-13.94-3.81-18.63s-8.33-6.68-14.83-5.46c-6.68,1.27-13.74,5.72-21,13.23s-13.62,17.41-19.17,29.56c-7.4,16.22-13.12,39.91-9.23,56.28,2.24,9.49,9.18,19.05,19.64,19.05a18.88,18.88,0,0,0,3.4-.32c6.51-1.23,12.56-5.93,18-14-.13,1-.25,2-.38,3.08-.58,4.73-1.22,9.93-1.93,15.27-13.94,7.23-30.7,19.8-32.44,38.9-.51,5.54,1.05,10,4.61,13.23a13.68,13.68,0,0,0,9.37,3.89,13.34,13.34,0,0,0,2.64-.26c5.12-1,10.24-6,15.65-15.46,4.85-8.47,9.34-20.63,13.73-37.14,40-14.11,133-34.83,207-34.83,38.88,0,66.11,5.76,80.93,17.11,6.09,4.66,8.8,10.83,7.44,16.91a1.8,1.8,0,0,0,.27,1.58,1.64,1.64,0,0,0,1.28.57c2,0,5.34-2.86,7.68-8.15,4.21-9.53,4.35-18.07.41-25.37C659.76,538.42,647.21,531.28,630.55,528.5ZM339.91,613.42c-1.9,6.76-4.27,10.45-7,11a2.45,2.45,0,0,1-.46,0c-.38,0-1.39,0-2.08-2.29a24.48,24.48,0,0,1-.46-9c1-11.45,6-20,15.19-26A221.06,221.06,0,0,1,339.91,613.42Z"
        transform="translate(-287.4 -336.42)"></path>
</svg>