<?xml version="1.0" encoding="UTF-8"?>
<svg version="1.1" viewBox="0 0 29 32" xmlns="http://www.w3.org/2000/svg">
    <g fill="none" fill-rule="evenodd">
        <g transform="translate(.97924)" fill-rule="nonzero">
            <path id="路径"
                d="m10.791 12.33v-1.22c-0.4235-0.067111-0.85126-0.10387-1.28-0.11002-4.1508-0.0087558-7.8257 2.681-9.0721 6.6403-1.2464 3.9592 0.22484 8.2691 3.6321 10.64-2.5523-2.7315-3.261-6.7079-1.8095-10.153 1.4515-3.4451 4.792-5.7155 8.5295-5.797z"
                fill="#25F4EE" />
            <path id="路径"
                d="m11.021 26.15c2.3208-0.0031224 4.2284-1.8315 4.33-4.15v-20.69h3.78c-0.077158-0.43232-0.11398-0.87087-0.11-1.31h-5.17v20.67c-0.085966 2.3303-1.9981 4.1762-4.33 4.18-0.69686-0.005933-1.3823-0.1773-2-0.5 0.81192 1.1249 2.1127 1.7939 3.5 1.8z"
                fill="#25F4EE" />
            <path id="路径"
                d="m26.191 8.33v-1.15c-1.3911 4.7625e-4 -2.7514-0.41004-3.91-1.18 1.0157 1.1807 2.3882 1.9986 3.91 2.33z"
                fill="#25F4EE" />
            <path id="路径"
                d="m22.281 6c-1.1413-1.2997-1.7705-2.9703-1.77-4.7h-1.38c0.36022 1.9327 1.4993 3.6322 3.15 4.7z"
                fill="#FE2C55" />
            <path id="路径"
                d="m9.5108 16.17c-1.9915 0.010218-3.7205 1.3746-4.1936 3.3092-0.473 1.9346 0.4314 3.9428 2.1936 4.8708-0.95482-1.3182-1.0897-3.0606-0.34914-4.51 0.74056-1.4495 2.2314-2.3612 3.8591-2.36 0.43401 0.0054084 0.86503 0.072755 1.28 0.2v-5.26c-0.42377-0.063494-0.85151-0.096911-1.28-0.1h-0.23v4c-0.41713-0.11185-0.84832-0.16238-1.28-0.15z"
                fill="#FE2C55" />
            <path id="a"
                d="m26.191 8.33v4c-2.5753-0.0049807-5.0837-0.82014-7.17-2.33v10.51c-0.011029 5.2444-4.2656 9.49-9.51 9.49-1.9476 0.0034556-3.8484-0.59751-5.44-1.72 2.6562 2.8568 6.7901 3.7972 10.421 2.3706s6.0185-4.9297 6.0193-8.8306v-10.48c2.0933 1.5 4.6048 2.3045 7.18 2.3v-5.15c-0.50417-0.0016046-1.0068-0.055222-1.5-0.16z"
                fill="#FE2C55" />
            <path
                d="m19.021 20.51v-10.51c2.0926 1.5012 4.6046 2.3059 7.18 2.3v-4c-1.5215-0.32129-2.8973-1.1285-3.92-2.3-1.6507-1.0678-2.7898-2.7673-3.15-4.7h-3.78v20.7c-0.075612 1.8468-1.3126 3.443-3.082 3.9772s-3.6831-0.11085-4.768-1.6072c-1.7622-0.92799-2.6666-2.9362-2.1936-4.8708 0.473-1.9346 2.202-3.299 4.1936-3.3092 0.43414 0.0038693 0.86537 0.07125 1.28 0.2v-4c-3.7584 0.063669-7.1242 2.342-8.5798 5.8077-1.4556 3.4657-0.726 7.4641 1.8598 10.192 1.6073 1.0855 3.5108 1.6478 5.45 1.61 5.2444 1.16e-5 9.499-4.2456 9.51-9.49z"
                fill="#fff" />
        </g>
    </g>
</svg>