<?xml version="1.0" encoding="UTF-8"?>
<svg id="Layer_1" data-name="Layer 1" xmlns="http://www.w3.org/2000/svg" viewBox="0 0 425.2 327.17"><path d="M669.15,470.56a10.75,10.75,0,0,0-.91-1.25l-.13-.17-.18-.21-9.72-11.64,0,0c-.14-.18-.3-.35-.45-.53l-.39-.4a21.48,21.48,0,0,0-4.92-3.76l-.12-.07a23.3,23.3,0,0,0-7-2.47l-7.88-9.46c-.15-.19-.31-.36-.46-.54a24.7,24.7,0,0,0-18.22-8.17c-.85,0-1.72.05-2.57.13a26.64,26.64,0,0,0-3.66.62c-.22-.31-.46-.62-.7-.93s-.36-.49-.56-.73L602,419.83l-.45-.51a25.73,25.73,0,0,0-6.66-5.45,30.88,30.88,0,0,0-15.58-4.07l-1.23,0a50.68,50.68,0,0,0,1.91-5c2.89-8.89,2.17-16.52-2.15-22.67.18-.89.32-1.75.44-2.58A26.51,26.51,0,0,0,574,360.3,11.92,11.92,0,0,0,573,359l-9.8-11.76c-.21-.26-.44-.5-.67-.74a25.14,25.14,0,0,0-7-5.36,32.67,32.67,0,0,0-15.23-3.62,37.62,37.62,0,0,0-3.8.19,41.13,41.13,0,0,0-11,2.71c-4.42,1.73-9.95,4.52-13.43,10.68l-.17.32a19.12,19.12,0,0,0-2.39,8.94v.23a50.84,50.84,0,0,1-.72,7.11,35.47,35.47,0,0,0-5-.34c-1.35,0-2.73.08-4.13.22-9.32.93-18.79,5.06-28.26,12.29a31.8,31.8,0,0,0-18.13-5.29h-1.08a44.15,44.15,0,0,0-5.28-8l-.33-.41-9.69-11.62c-.17-.2-.34-.4-.52-.59l-.61-.69c-10.09-10.91-25.78-16.9-44.21-16.9-26.5,0-54.45,11.67-71.21,29.75-11.88,12.82-17.52,28-16.31,43.85a42.9,42.9,0,0,0,9.27,23.86c.19.27.39.53.6.79l1.16,1.39-1.25.22c-10.66,2-21.14,8.31-31.17,18.73-8.68,9-16.34,20.75-22.78,34.86-8.49,18.62-15.7,46.42-10.44,68.58A48.63,48.63,0,0,0,259,578c.16.23.34.45.52.67l6.47,7.75a55.93,55.93,0,0,0-10.65,27.91c-.91,10.05,1.84,19.06,8,26.12l.28.35,8.94,10.76.27.31,0,0c.23.28.48.55.74.81a28.3,28.3,0,0,0,2.05,2,32.52,32.52,0,0,0,22.18,8.84A33.53,33.53,0,0,0,304,663c14.48-2.72,23.24-15.4,28.57-24.7,4.6-8,8.8-18.46,12.79-31.72,42.38-13.31,125.42-30.67,191.38-30.67,26,0,46.93,2.89,60.17,8.22a20.54,20.54,0,0,0,4.11,8.82l.14.18,9.31,11.15c.14.18.28.35.43.52l0,0a10,10,0,0,0,.88.95,20.72,20.72,0,0,0,14.85,6.28c10.32,0,19.7-7.28,25.09-19.48,8.36-18.92,4.47-33.34-.25-42.1a44.44,44.44,0,0,0-3.74-5.7,11.85,11.85,0,0,0-.75-1l-.68-.82,0,0,0-.06-8.91-10.69a75.32,75.32,0,0,0,9.86-15.93,44.61,44.61,0,0,0,9.87-6.9,67.24,67.24,0,0,0,13-16.66c.17-.3.34-.61.49-.91A20.75,20.75,0,0,0,669.15,470.56Z" transform="translate(-247.66 -336.42)"/><path d="M649.4,458l-.11-.06a17,17,0,0,0-8.23-2.07,19.62,19.62,0,0,0-2.73.2l-.07,0c-4-16.25-15-18-19.55-18a17.59,17.59,0,0,0-1.94.11,21.27,21.27,0,0,0-11.57,4.93l-.66.53a31.12,31.12,0,0,0-5.82,1.3c.32-.6.6-1.2.85-1.8a19.88,19.88,0,0,0,1.36-4.57,18.12,18.12,0,0,0-9.18-19.31A24.72,24.72,0,0,0,579.26,416c-.92,0-1.87.05-2.83.14a34.26,34.26,0,0,0-13.14,4.13,15.62,15.62,0,0,0-8.18-6.3l-.34-.12a18.11,18.11,0,0,0-5.51-.87,17.13,17.13,0,0,0-2.88.24l.56-1.66.29-.84a18.08,18.08,0,0,0,6-2.7c5-3.39,8.85-8.95,11.3-16.54.94-2.91,3.45-10.63-1.46-17.39a15.05,15.05,0,0,0-1.52-1.78,42.79,42.79,0,0,0,1-5.05c1.31-9-2.39-16.72-9.89-20.62a26.64,26.64,0,0,0-12.37-2.93,31.6,31.6,0,0,0-3.19.17,34.75,34.75,0,0,0-9.32,2.31c-3.67,1.44-7.77,3.5-10.27,7.91l-.09.16-.12.23a12.79,12.79,0,0,0-1.57,5.95v.24a66.8,66.8,0,0,1-1.26,10.71c-.16.93-.36,1.92-.59,3-.41.16-.82.33-1.22.53a27.74,27.74,0,0,0-8.86-1.38c-1.14,0-2.32.06-3.52.18-9.35.94-19.07,5.69-28.89,14.13-.34-.34-.68-.67-1.05-1-3.11-2.78-8.6-6.11-17.06-6.11-1.14,0-2.33.06-3.52.18a39.4,39.4,0,0,0-8.48,1.86,36.91,36.91,0,0,0-10.09-25.31c-8.88-9.6-22.95-14.89-39.63-14.89-24.85,0-51,10.9-66.66,27.77-10.67,11.52-15.75,25.06-14.68,39.16.67,8.76,4.44,17,11.2,24.57a62.28,62.28,0,0,0,9.7,8.62,52.45,52.45,0,0,0-10.06-.95h-.31a31.67,31.67,0,0,0-5.79.59c-9.35,1.77-18.72,7.47-27.84,16.94-8.18,8.5-15.45,19.65-21.6,33.12-7.7,16.88-15,43.92-10.05,64.58,2.33,9.83,9,21.7,20.76,26.64-8.74,9.3-13.7,19.78-14.75,31.2-1.09,12.14,4.16,19.69,8.76,23.87a26.42,26.42,0,0,0,18,7.23,26.93,26.93,0,0,0,5.06-.48c12-2.25,19.64-13.46,24.36-21.69s9-19.22,13.15-33.54c38.33-12.46,124.79-32,196.41-32,44.83,0,64.51,7.87,73.12,14.47,1.88,1.43,2.94,3,2.73,3.93A14.64,14.64,0,0,0,605.84,589l.07.09a14.41,14.41,0,0,0,11.25,5.33c7.67,0,15.11-6.05,19.41-15.8,7.35-16.62,4-29.09,0-36.63-4-7.37-10.79-13.72-19.77-18.44q1.13-1.05,2.25-2.19a68.4,68.4,0,0,0,14-21.19,37.19,37.19,0,0,0,10.42-6.84,61,61,0,0,0,11.84-15.17c.1-.17.2-.35.29-.54A14.66,14.66,0,0,0,649.4,458Z" transform="translate(-247.66 -336.42)" style="fill:#fff"/><path d="M411.35,434.18c-1.7,9.51-.41,16.76,3.85,21.53A18.42,18.42,0,0,0,429.52,462a25.58,25.58,0,0,0,2.59-.14c6.8-.68,13.81-3.65,20.81-8.82a62.49,62.49,0,0,0,10-9.06,16.46,16.46,0,0,0,2.83,4.51A18.39,18.39,0,0,0,480,454.78a25.52,25.52,0,0,0,2.59-.13c6.81-.68,13.81-3.65,20.81-8.83a64.51,64.51,0,0,0,9-8,21.59,21.59,0,0,0,1.77,8.35c1.94,4.11,4.83,6.2,8.58,6.2a10.47,10.47,0,0,0,1.62-.13c5.05-.89,10.17-3.49,15.25-7.72a58.2,58.2,0,0,0,12.75-15.06,2.14,2.14,0,0,0,.28-1.88,2.78,2.78,0,0,0-1.86-1.53c-2.2-.7-4.09,0-5.56,2.19a30.24,30.24,0,0,1-7.18,9.19,26.19,26.19,0,0,1-8.21,5.13,2.74,2.74,0,0,1-.62.07c-.41,0-1.27,0-1.57-1.87s0-5.56.89-10.64a151.84,151.84,0,0,1,5-19.11q2.52-7.41,4.21-12.26a26.5,26.5,0,0,0,5.92-.42,4.93,4.93,0,0,0,2.28-.91c2.65-1.78,4.78-5.11,6.33-9.9,1-3.07,1.1-4.89.36-5.92a2.11,2.11,0,0,0-2.13-.76l-.29.1a48.33,48.33,0,0,1-6.34,2.71c3.48-8.29,5.43-14.25,6-18.19.54-3.59-.51-6.1-3.11-7.45a14.58,14.58,0,0,0-8.35-1.38,22.14,22.14,0,0,0-5.92,1.48c-2.83,1.11-3.51,1.79-3.8,2.31l-.12.21v.24a81.53,81.53,0,0,1-1.45,12.77c-.63,3.54-1.61,7.78-2.91,12.62-2.24.06-3.84.05-4.73,0h-.21a2.87,2.87,0,0,0-2,1,3.87,3.87,0,0,0-1.13,2.61,3.57,3.57,0,0,0,1.56,3.05,35.65,35.65,0,0,0,4,2.14c-.11.38-.28.93-.54,1.71-3.08,10.67-4.74,16.56-5.09,18-1.38,5.54-2.22,9.17-2.56,11.11,0,.18-.06.36-.09.54a2.58,2.58,0,0,0-1.44,1c-1.88,3.9-5.26,7.5-10.06,10.68s-9.21,5-13.1,5.39a6.3,6.3,0,0,1-6.26-3.06c-1.56-2.33-2.19-6.06-1.87-11.11,7.14-1.86,14.38-5.8,21.53-11.71,7.44-6.15,11.83-12.65,13-19.31a9.25,9.25,0,0,0-2.89-9.06c-2.53-2.26-6.13-3.17-10.75-2.71-7.33.73-15.4,5.12-24,13S463.71,416.69,461.87,427a42.56,42.56,0,0,0-.69,8.13c-1.92,3.71-5.2,7.14-9.8,10.19-4.8,3.19-9.21,5-13.09,5.39a6.29,6.29,0,0,1-6.27-3.06c-1.56-2.32-2.19-6.06-1.87-11.1,7.14-1.87,14.38-5.81,21.53-11.72,7.44-6.15,11.82-12.64,13-19.3a9.24,9.24,0,0,0-2.89-9.06c-2.53-2.26-6.12-3.18-10.75-2.72-7.33.74-15.4,5.12-24,13S413.19,423.9,411.35,434.18ZM481.63,422a64,64,0,0,1,6.53-19.2c3.44-6.18,5.87-7.64,7.3-7.78h.12a.61.61,0,0,1,.5.23c.38.45,1.14,2.25-.08,9a26.4,26.4,0,0,1-5.73,12.37,18.1,18.1,0,0,1-8.77,6.1Zm-50.52,7.21a64.65,64.65,0,0,1,6.52-19.2c3.45-6.17,5.88-7.63,7.31-7.78h.12a.57.57,0,0,1,.49.22c.39.46,1.14,2.25-.07,9a26.35,26.35,0,0,1-5.73,12.37,18,18,0,0,1-8.77,6.1Zm-87.84.66h0a15.35,15.35,0,0,0,13.27-7.51c2.63-4.14,2.45-10.14,1.18-12.45a2.11,2.11,0,0,0-1.85-1.31,1.89,1.89,0,0,0-1.18.43,8.76,8.76,0,0,1-5.22,1.91c-3.8,0-7-3-8.07-7.62a24.55,24.55,0,0,1,4.83-21.55c7.35-9.31,21.48-15.57,35.17-15.57,12.86,0,22.29,5.38,25.88,14.76,2.68,7,2.1,15.09-1.67,23.3-5.69,12.35-18.35,24.22-31.2,29.37,1.28-7.08,3.18-16.9,5.91-30.65L382.72,391c1.69-8.44,3-15.11,3.6-18.38a3.65,3.65,0,0,0-1-2.83c-1.71-1.86-5.18-2.72-7.68-2.72-2.28,0-3.67.67-3.94,1.86l-.08.32c-3.22,13-6.19,25.24-8.37,34.63-3.46,15-6.24,26.28-8.24,33.68-1.43,5.31-2.88,10.14-4.15,14.4-1,3.53-2,6.87-2.9,10-.33,1.21-.69,2.4-1,3.56-1.5,5-2.79,9.29-.92,11.8,1,1.29,2.57,1.91,4.92,1.91a20.91,20.91,0,0,0,3.85-.42c.1,0,10.69-2.43,10.93-5.06.84-9.11,2.67-18.65,4.45-27.88.33-1.74.67-3.47,1-5.2,19.06-4.52,47.06-26.83,53.82-48.32,3.16-10.05,1.37-19.09-5.16-26.16s-17.15-10.77-30.21-10.77c-21.13,0-44.13,9.51-57.25,23.67-8.19,8.83-12.09,19-11.3,29.46C324,421.88,334.12,429.84,343.27,429.84Zm299.88,39.35a4.66,4.66,0,0,0-3-.44,4.16,4.16,0,0,0-2.8,1.61,31.54,31.54,0,0,1-5.83,7.72c-2,1.85-3.91,2.88-5.63,3.05l-.5,0,.35-1.93c1.38-7.68,1.41-14.38.08-19.92-1.42-5.91-4.05-8.78-7.78-8.4a8.64,8.64,0,0,0-4.83,2.17A14.54,14.54,0,0,0,609.8,457a4.66,4.66,0,0,0-3.28-.71c-5.92.59-12.73,4.59-20.25,11.9A51.61,51.61,0,0,0,571.6,493.1a46.61,46.61,0,0,0-.86,5.11,48.47,48.47,0,0,1-5.58,8.81c-2.64,3.16-4.07,3.74-4.88,3.8-.58-.05-.61-1.4-.6-2a77.94,77.94,0,0,1,1.4-10.46A153.89,153.89,0,0,1,567,476.14c2.7-7.93,4.69-13.09,5.93-15.31l.1-.28c.12-.68-.34-1.24-1.06-1.88a8,8,0,0,0-2.91-1.42,10.46,10.46,0,0,0-4-.38c-4.76.47-9.26,4.24-13.37,11.2-4,6.78-7,15.26-8.75,25.22-.28,1.57-.48,3.07-.63,4.54a27,27,0,0,1-6.45,7.11,30.82,30.82,0,0,1-13.29,6c-2.92.54-5.11,0-6.65-1.71-2.59-2.82-3.48-8.82-2.66-17.8,1-8.43,2.77-15.27,5.39-20.33,2.53-4.89,5.07-7.61,7.54-8.07a.59.59,0,0,1,.58.13c.24.26.77,1.26.45,4.75a27.26,27.26,0,0,1-2.19,8.24c-1.53,3.59-2.65,4.16-3.21,4.26a2.6,2.6,0,0,0-2.32,2.42c-.08.83.27,1.93,2.37,2.54a11.89,11.89,0,0,0,5.39-.05,24.62,24.62,0,0,0,10.13-4.73c3.37-2.52,5.61-5.24,6.69-8.11a28.05,28.05,0,0,0,1.11-5.85c.39-4.17-.73-7.52-3.34-9.95s-6.31-3.22-11-2.33c-7.64,1.44-15.52,6.51-23.42,15.06s-12.38,18.2-13.33,28.66a42.84,42.84,0,0,0-.16,4.86,4.88,4.88,0,0,0-1.88,1.57c-5.44,10.59-8.68,13-10.62,13.2a.55.55,0,0,1-.41-.23c-.44-.57-1-2.46.13-8.71.93-5.19,3.71-13.7,8.25-25.25,2.94-7.21,4.58-11.88,5-14.27a8.36,8.36,0,0,0-.32-5l-1-1.49c-2-1.76-6.07-.9-12.7,2.72-.76.37-1.88,1-3.32,1.84s-2.57,1.49-3.41,2a23.91,23.91,0,0,1-3.27,1.42,24.44,24.44,0,0,1-2.74.8l2.26-8.44a3.5,3.5,0,0,0-1.84-4.33,8.93,8.93,0,0,0-4.89-.8c-1.93.2-4.18,1.25-6.87,3.22a26.67,26.67,0,0,0-6.36,6.52,14.3,14.3,0,0,0-2.28,5.09,5.66,5.66,0,0,0,.77,4.38,7.27,7.27,0,0,0,4.49,2.63A136,136,0,0,1,443,509.11a4.73,4.73,0,0,0-.39,1.48,30.35,30.35,0,0,1-8,9c-4.52,3.58-8.77,5.77-12.63,6.5a6.35,6.35,0,0,1-6.54-2.5c-1.76-2.17-2.71-5.81-2.83-10.84,7-2.48,13.87-7,20.5-13.51,6.91-6.75,10.72-13.58,11.34-20.3a9.16,9.16,0,0,0-3.69-8.74c-2.71-2-6.41-2.61-11-1.75-7.26,1.36-14.95,6.42-22.85,15S394.6,501.68,393.65,512c-.52,5.73,0,10.54,1.44,14.43-3.47,7.31-6.28,9.4-8.13,9.75a2.94,2.94,0,0,1-.51,0,1.63,1.63,0,0,1-1.29-.58c-1-1.05-1.94-4-1.2-12.16a71,71,0,0,1,1.49-8.76l1.66-7.33c2.36-10.21,3.6-16.11,3.77-18,.32-3.43-.69-5.75-3-6.92a11.26,11.26,0,0,0-7.24-.84,14.57,14.57,0,0,0-4.93,1.93c-1.79,1.1-2.62,2-2.7,3.1a37.37,37.37,0,0,1,0,6.43A105.73,105.73,0,0,1,371.16,504c-4.35,11.91-8,20.95-10.83,26.89-3.54,7.43-5.76,8.87-6.89,9.07a.34.34,0,0,1-.29-.15c-.41-.44-1.27-2.28-.59-9.78a72,72,0,0,1,2-11.43,182.45,182.45,0,0,0,4.18-24c.33-3.68-1.44-5.3-3-6a11.14,11.14,0,0,0-6.8-.69,17.57,17.57,0,0,0-4.78,1.73,24.68,24.68,0,0,0-4.06,2.56c-1.39,1.1-1.9,1.88-1.78,2.55a111.18,111.18,0,0,1-.26,15.11c-.23,2.51-.92,7-2.06,13.28S334.2,534,334,536.57c-.56,6.12.13,10.51,2.09,13.43a7.88,7.88,0,0,0,6.89,3.67,12.18,12.18,0,0,0,2.27-.22c7.4-1.4,14.51-8.58,21.67-21.92a19.77,19.77,0,0,0,4.47,10.12c3.27,3.93,7.41,5.49,12.24,4.57,3.76-.7,7.48-3.31,11.06-7.76a61.23,61.23,0,0,0,4.18-6c.18.18.34.39.54.58a18.3,18.3,0,0,0,12.87,5.07,25.22,25.22,0,0,0,4.57-.44c6.75-1.27,13.49-4.83,20-10.57S448.14,515.3,451,508.93l0-.27a182.67,182.67,0,0,0,12.91-29,53.16,53.16,0,0,0,8.23-1.89,115.74,115.74,0,0,0-9.35,28.13c-1.16,6.45-.53,11.77,1.89,15.83a10.63,10.63,0,0,0,8.46,5.64,12.58,12.58,0,0,0,2.45,0c4.08-.4,8.22-2.65,12.3-6.66a61.08,61.08,0,0,0,7.4-9.07,15.75,15.75,0,0,0,4.53,6.81A19,19,0,0,0,512.53,523a27.11,27.11,0,0,0,5-.49c6.75-1.27,13.39-4.64,19.77-10a63.29,63.29,0,0,0,5.09-4.79,24.57,24.57,0,0,0,1.37,5.39c1.75,4.47,4.67,6.92,8.67,7.27a12.91,12.91,0,0,0,2.32,0l.77-.07c4-.61,8.09-3,12.12-7,1.28-1.29,2.53-2.74,3.76-4.25a19,19,0,0,0,16.27,13.8,21.57,21.57,0,0,0,4,0c5.93-.58,12-4.07,18.2-10.37a57.52,57.52,0,0,0,13.4-22.76l.45,0a21.39,21.39,0,0,0,11.07-5.74,48.61,48.61,0,0,0,9.32-12A1.9,1.9,0,0,0,643.15,469.19ZM413,505.36a63.76,63.76,0,0,1,4.84-19.62c2.91-6.43,5.21-8.09,6.63-8.36a.71.71,0,0,1,.2,0,.59.59,0,0,1,.48.22c.51.56,1.27,2.45.68,8.92a26.17,26.17,0,0,1-4.65,12.78,18.12,18.12,0,0,1-8.25,6.82Zm193-.15c-3,4-6.15,6.25-9.45,6.57a5.51,5.51,0,0,1-1.07,0c-2.36-.21-3.91-2.09-4.76-5.75-1-4.51-.79-10.48.69-17.68a57,57,0,0,1,7.76-17.68c2.78-4.17,5.52-7,8.18-8.34a16.74,16.74,0,0,0-.56,2.27A31.92,31.92,0,0,0,606.6,475h-.06l.07.92a18.26,18.26,0,0,0,2.34,7.52,17.49,17.49,0,0,0,4.08,5C611.39,495.47,609,501.1,606,505.21Zm-37.33-54.6a12.84,12.84,0,0,0,2.23,0c2.41-.24,5.49-1.68,9.43-4.38s6.43-5.48,7.51-8.21a6.15,6.15,0,0,0,.49-1.72,5.32,5.32,0,0,0-2.93-5.9,12.6,12.6,0,0,0-7.68-1.47,22.4,22.4,0,0,0-9.82,3.55c-3.28,2.09-5.2,4.55-5.7,7.31-.6,3.33-.15,6.05,1.33,8.1A6.7,6.7,0,0,0,568.64,450.61Zm22.17,77.89a267.41,267.41,0,0,0-43.39-3.18c-76.2,0-169.34,23.07-224.57,44.76,2.29-9.58,4.26-19.05,5.86-26.76l.77-3.75c.14-.66.32-1.41.5-2.19a44.82,44.82,0,0,0,1-5.5,1.88,1.88,0,0,0-.53-1.48c-2.06-2.25-10.84-2.76-13.75-2.76a16.69,16.69,0,0,0-2.51.15c-1.19.23-2.38,1.47-3,8.89-2,9-7.71,24.52-16.12,26.11-3.56.66-6.09-1.36-7.85-6.25-5.06-14.09.8-42.38,5.68-56.91,3.64-10.83,7.57-19.58,11.68-26,4-6.26,7.47-9.7,10.25-10.22a2.46,2.46,0,0,1,2.46.72c1.2,1.32,2.45,5,1.53,15.07a35.34,35.34,0,0,1-4.05,14.3c-2.09,3.69-4.07,5.73-5.88,6.07l-.29.06a1.18,1.18,0,0,0-.93,1.16c-.11,1.24.75,2.52,2.64,3.93a8.09,8.09,0,0,0,6.56,1.29c4.53-.86,8.73-3.75,12.49-8.61s5.95-11,6.62-18.33c.7-7.67-.58-13.93-3.81-18.62s-8.33-6.68-14.83-5.46c-6.68,1.27-13.74,5.72-21,13.23s-13.62,17.41-19.17,29.56c-7.4,16.22-13.12,39.91-9.23,56.29,2.24,9.47,9.18,19,19.64,19a18,18,0,0,0,3.4-.33c6.51-1.22,12.56-5.92,18-14-.13,1-.25,2-.38,3.08-.58,4.72-1.21,9.93-1.93,15.27-13.94,7.23-30.7,19.8-32.44,38.9-.5,5.53,1.05,10,4.61,13.23a13.68,13.68,0,0,0,9.37,3.89,14.11,14.11,0,0,0,2.64-.25c5.12-1,10.24-6,15.65-15.47,4.85-8.47,9.34-20.63,13.73-37.14,40-14.12,133-34.83,207-34.83,38.87,0,66.1,5.76,80.92,17.11,6.1,4.66,8.81,10.83,7.45,16.91a1.8,1.8,0,0,0,.27,1.58,1.63,1.63,0,0,0,1.28.57c2,0,5.35-2.86,7.68-8.15,4.21-9.53,4.35-18.07.41-25.37C620,538.42,607.47,531.28,590.81,528.5ZM300.18,613.42c-1.91,6.76-4.27,10.45-7,11a3.73,3.73,0,0,1-.46,0c-.38,0-1.39,0-2.09-2.29a24.74,24.74,0,0,1-.45-9c1.05-11.45,6-20,15.19-26A223.46,223.46,0,0,1,300.18,613.42Z" transform="translate(-247.66 -336.42)"/></svg>
